<mxfile host="Electron" modified="2023-06-08T10:13:47.434Z" agent="Mozilla/5.0 (Windows NT 10.0; Win64; x64) AppleWebKit/537.36 (KHTML, like Gecko) draw.io/21.2.8 Chrome/112.0.5615.165 Electron/24.2.0 Safari/537.36" etag="p2Uodcrl1ftcyY1io7CI" version="21.2.8" type="device">
  <diagram name="Page-1" id="yi8XpHsxwfXrC6YvU_RY">
    <mxGraphModel dx="1349" dy="779" grid="1" gridSize="10" guides="1" tooltips="1" connect="1" arrows="1" fold="1" page="1" pageScale="1" pageWidth="1654" pageHeight="1169" math="0" shadow="0">
      <root>
        <mxCell id="0" />
        <mxCell id="1" parent="0" />
        <mxCell id="igZRPWCzs3Hm7b5LNBdH-1" value="Activity 7" style="rounded=1;whiteSpace=wrap;html=1;strokeColor=#001DBC;fontColor=#ffffff;fillColor=#0050ef;gradientColor=none;" parent="1" vertex="1">
          <mxGeometry x="727" y="100" width="120" height="60" as="geometry" />
        </mxCell>
        <mxCell id="LU6Gm1x-lDn4f1ZFZXQ8-4" style="edgeStyle=orthogonalEdgeStyle;rounded=0;orthogonalLoop=1;jettySize=auto;html=1;entryX=0.5;entryY=0;entryDx=0;entryDy=0;" edge="1" parent="1" source="mUuY9xoMhvxbhO6yxmGz-1" target="LU6Gm1x-lDn4f1ZFZXQ8-1">
          <mxGeometry relative="1" as="geometry" />
        </mxCell>
        <mxCell id="mUuY9xoMhvxbhO6yxmGz-1" value="Code Start" style="ellipse;whiteSpace=wrap;html=1;fillColor=#d5e8d4;strokeColor=#82b366;" parent="1" vertex="1">
          <mxGeometry x="727" y="170" width="120" height="80" as="geometry" />
        </mxCell>
        <mxCell id="mUuY9xoMhvxbhO6yxmGz-18" style="edgeStyle=orthogonalEdgeStyle;rounded=0;orthogonalLoop=1;jettySize=auto;html=1;entryX=0.5;entryY=0;entryDx=0;entryDy=0;" parent="1" source="mUuY9xoMhvxbhO6yxmGz-9" target="mUuY9xoMhvxbhO6yxmGz-10" edge="1">
          <mxGeometry relative="1" as="geometry" />
        </mxCell>
        <mxCell id="mUuY9xoMhvxbhO6yxmGz-27" style="edgeStyle=orthogonalEdgeStyle;rounded=0;orthogonalLoop=1;jettySize=auto;html=1;" parent="1" source="mUuY9xoMhvxbhO6yxmGz-9" target="mUuY9xoMhvxbhO6yxmGz-22" edge="1">
          <mxGeometry relative="1" as="geometry" />
        </mxCell>
        <mxCell id="mUuY9xoMhvxbhO6yxmGz-9" value="Has reached final wall?" style="rhombus;whiteSpace=wrap;html=1;fillColor=#f8cecc;strokeColor=#b85450;" parent="1" vertex="1">
          <mxGeometry x="722" y="376" width="130" height="80" as="geometry" />
        </mxCell>
        <mxCell id="mUuY9xoMhvxbhO6yxmGz-28" style="edgeStyle=orthogonalEdgeStyle;rounded=0;orthogonalLoop=1;jettySize=auto;html=1;entryX=0;entryY=0.5;entryDx=0;entryDy=0;" parent="1" source="mUuY9xoMhvxbhO6yxmGz-10" target="mUuY9xoMhvxbhO6yxmGz-23" edge="1">
          <mxGeometry relative="1" as="geometry" />
        </mxCell>
        <mxCell id="LU6Gm1x-lDn4f1ZFZXQ8-9" style="edgeStyle=orthogonalEdgeStyle;rounded=0;orthogonalLoop=1;jettySize=auto;html=1;entryX=0.5;entryY=0;entryDx=0;entryDy=0;" edge="1" parent="1" source="mUuY9xoMhvxbhO6yxmGz-10" target="LU6Gm1x-lDn4f1ZFZXQ8-8">
          <mxGeometry relative="1" as="geometry" />
        </mxCell>
        <mxCell id="mUuY9xoMhvxbhO6yxmGz-10" value="Is on a marker?" style="rhombus;whiteSpace=wrap;html=1;fillColor=#f8cecc;strokeColor=#b85450;" parent="1" vertex="1">
          <mxGeometry x="722" y="480" width="130" height="80" as="geometry" />
        </mxCell>
        <mxCell id="LU6Gm1x-lDn4f1ZFZXQ8-6" style="edgeStyle=orthogonalEdgeStyle;rounded=0;orthogonalLoop=1;jettySize=auto;html=1;" edge="1" parent="1" source="mUuY9xoMhvxbhO6yxmGz-22" target="LU6Gm1x-lDn4f1ZFZXQ8-5">
          <mxGeometry relative="1" as="geometry" />
        </mxCell>
        <mxCell id="mUuY9xoMhvxbhO6yxmGz-22" value="Drop all markers" style="shape=parallelogram;perimeter=parallelogramPerimeter;whiteSpace=wrap;html=1;fixedSize=1;fillColor=#e1d5e7;strokeColor=#9673a6;" parent="1" vertex="1">
          <mxGeometry x="900" y="386" width="120" height="60" as="geometry" />
        </mxCell>
        <mxCell id="h23bOPsmLHP65PpYI3rM-21" style="edgeStyle=orthogonalEdgeStyle;rounded=0;orthogonalLoop=1;jettySize=auto;html=1;" parent="1" source="mUuY9xoMhvxbhO6yxmGz-23" target="LU6Gm1x-lDn4f1ZFZXQ8-1" edge="1">
          <mxGeometry relative="1" as="geometry">
            <mxPoint x="1200" y="280" as="targetPoint" />
            <Array as="points">
              <mxPoint x="1200" y="520" />
              <mxPoint x="1200" y="320" />
            </Array>
          </mxGeometry>
        </mxCell>
        <mxCell id="mUuY9xoMhvxbhO6yxmGz-23" value="Pick up marker" style="shape=parallelogram;perimeter=parallelogramPerimeter;whiteSpace=wrap;html=1;fixedSize=1;fillColor=#e1d5e7;strokeColor=#9673a6;" parent="1" vertex="1">
          <mxGeometry x="900" y="490" width="120" height="60" as="geometry" />
        </mxCell>
        <mxCell id="LU6Gm1x-lDn4f1ZFZXQ8-12" style="edgeStyle=orthogonalEdgeStyle;rounded=0;orthogonalLoop=1;jettySize=auto;html=1;" edge="1" parent="1" source="mUuY9xoMhvxbhO6yxmGz-25" target="mUuY9xoMhvxbhO6yxmGz-26">
          <mxGeometry relative="1" as="geometry" />
        </mxCell>
        <mxCell id="mUuY9xoMhvxbhO6yxmGz-25" value="Move Forwards" style="shape=parallelogram;perimeter=parallelogramPerimeter;whiteSpace=wrap;html=1;fixedSize=1;fillColor=#e1d5e7;strokeColor=#9673a6;" parent="1" vertex="1">
          <mxGeometry x="727" y="660" width="120" height="60" as="geometry" />
        </mxCell>
        <mxCell id="LU6Gm1x-lDn4f1ZFZXQ8-14" style="edgeStyle=orthogonalEdgeStyle;rounded=0;orthogonalLoop=1;jettySize=auto;html=1;" edge="1" parent="1" source="mUuY9xoMhvxbhO6yxmGz-26" target="LU6Gm1x-lDn4f1ZFZXQ8-13">
          <mxGeometry relative="1" as="geometry" />
        </mxCell>
        <mxCell id="mUuY9xoMhvxbhO6yxmGz-26" value="Turn left" style="shape=parallelogram;perimeter=parallelogramPerimeter;whiteSpace=wrap;html=1;fixedSize=1;fillColor=#e1d5e7;strokeColor=#9673a6;" parent="1" vertex="1">
          <mxGeometry x="727" y="740" width="120" height="60" as="geometry" />
        </mxCell>
        <mxCell id="h23bOPsmLHP65PpYI3rM-1" value="Yes" style="text;strokeColor=none;align=center;fillColor=none;html=1;verticalAlign=middle;whiteSpace=wrap;rounded=0;" parent="1" vertex="1">
          <mxGeometry x="852" y="386" width="60" height="30" as="geometry" />
        </mxCell>
        <mxCell id="h23bOPsmLHP65PpYI3rM-9" value="No" style="text;strokeColor=none;align=center;fillColor=none;html=1;verticalAlign=middle;whiteSpace=wrap;rounded=0;" parent="1" vertex="1">
          <mxGeometry x="727" y="460" width="60" height="20" as="geometry" />
        </mxCell>
        <mxCell id="h23bOPsmLHP65PpYI3rM-14" value="No" style="text;strokeColor=none;align=center;fillColor=none;html=1;verticalAlign=middle;whiteSpace=wrap;rounded=0;" parent="1" vertex="1">
          <mxGeometry x="727" y="560" width="60" height="20" as="geometry" />
        </mxCell>
        <mxCell id="LU6Gm1x-lDn4f1ZFZXQ8-7" style="edgeStyle=orthogonalEdgeStyle;rounded=0;orthogonalLoop=1;jettySize=auto;html=1;entryX=0.5;entryY=0;entryDx=0;entryDy=0;" edge="1" parent="1" source="LU6Gm1x-lDn4f1ZFZXQ8-1" target="mUuY9xoMhvxbhO6yxmGz-9">
          <mxGeometry relative="1" as="geometry" />
        </mxCell>
        <mxCell id="LU6Gm1x-lDn4f1ZFZXQ8-1" value="Move Forwards" style="shape=parallelogram;perimeter=parallelogramPerimeter;whiteSpace=wrap;html=1;fixedSize=1;fillColor=#e1d5e7;strokeColor=#9673a6;" vertex="1" parent="1">
          <mxGeometry x="727" y="290" width="120" height="60" as="geometry" />
        </mxCell>
        <mxCell id="LU6Gm1x-lDn4f1ZFZXQ8-5" value="Code End" style="ellipse;whiteSpace=wrap;html=1;fillColor=#d5e8d4;strokeColor=#82b366;" vertex="1" parent="1">
          <mxGeometry x="1040" y="375" width="120" height="80" as="geometry" />
        </mxCell>
        <mxCell id="LU6Gm1x-lDn4f1ZFZXQ8-11" style="edgeStyle=orthogonalEdgeStyle;rounded=0;orthogonalLoop=1;jettySize=auto;html=1;" edge="1" parent="1" source="LU6Gm1x-lDn4f1ZFZXQ8-8" target="mUuY9xoMhvxbhO6yxmGz-25">
          <mxGeometry relative="1" as="geometry" />
        </mxCell>
        <mxCell id="LU6Gm1x-lDn4f1ZFZXQ8-8" value="Turn around" style="shape=parallelogram;perimeter=parallelogramPerimeter;whiteSpace=wrap;html=1;fixedSize=1;fillColor=#e1d5e7;strokeColor=#9673a6;" vertex="1" parent="1">
          <mxGeometry x="727" y="580" width="120" height="60" as="geometry" />
        </mxCell>
        <mxCell id="LU6Gm1x-lDn4f1ZFZXQ8-16" style="edgeStyle=orthogonalEdgeStyle;rounded=0;orthogonalLoop=1;jettySize=auto;html=1;entryX=0;entryY=0.5;entryDx=0;entryDy=0;" edge="1" parent="1" source="LU6Gm1x-lDn4f1ZFZXQ8-13" target="LU6Gm1x-lDn4f1ZFZXQ8-15">
          <mxGeometry relative="1" as="geometry" />
        </mxCell>
        <mxCell id="LU6Gm1x-lDn4f1ZFZXQ8-25" style="edgeStyle=orthogonalEdgeStyle;rounded=0;orthogonalLoop=1;jettySize=auto;html=1;" edge="1" parent="1" source="LU6Gm1x-lDn4f1ZFZXQ8-13" target="LU6Gm1x-lDn4f1ZFZXQ8-24">
          <mxGeometry relative="1" as="geometry" />
        </mxCell>
        <mxCell id="LU6Gm1x-lDn4f1ZFZXQ8-13" value="Is on a marker?" style="rhombus;whiteSpace=wrap;html=1;fillColor=#f8cecc;strokeColor=#b85450;" vertex="1" parent="1">
          <mxGeometry x="722" y="830" width="130" height="80" as="geometry" />
        </mxCell>
        <mxCell id="LU6Gm1x-lDn4f1ZFZXQ8-17" style="edgeStyle=orthogonalEdgeStyle;rounded=0;orthogonalLoop=1;jettySize=auto;html=1;entryX=1;entryY=0.5;entryDx=0;entryDy=0;" edge="1" parent="1" source="LU6Gm1x-lDn4f1ZFZXQ8-15" target="LU6Gm1x-lDn4f1ZFZXQ8-1">
          <mxGeometry relative="1" as="geometry">
            <Array as="points">
              <mxPoint x="1200" y="870" />
              <mxPoint x="1200" y="320" />
            </Array>
          </mxGeometry>
        </mxCell>
        <mxCell id="LU6Gm1x-lDn4f1ZFZXQ8-15" value="Pick up marker" style="shape=parallelogram;perimeter=parallelogramPerimeter;whiteSpace=wrap;html=1;fixedSize=1;fillColor=#e1d5e7;strokeColor=#9673a6;" vertex="1" parent="1">
          <mxGeometry x="900" y="840" width="120" height="60" as="geometry" />
        </mxCell>
        <mxCell id="LU6Gm1x-lDn4f1ZFZXQ8-18" value="Yes" style="text;strokeColor=none;align=center;fillColor=none;html=1;verticalAlign=middle;whiteSpace=wrap;rounded=0;" vertex="1" parent="1">
          <mxGeometry x="852" y="490" width="60" height="30" as="geometry" />
        </mxCell>
        <mxCell id="LU6Gm1x-lDn4f1ZFZXQ8-19" value="Yes" style="text;strokeColor=none;align=center;fillColor=none;html=1;verticalAlign=middle;whiteSpace=wrap;rounded=0;" vertex="1" parent="1">
          <mxGeometry x="847" y="840" width="60" height="30" as="geometry" />
        </mxCell>
        <mxCell id="LU6Gm1x-lDn4f1ZFZXQ8-20" value="No" style="text;strokeColor=none;align=center;fillColor=none;html=1;verticalAlign=middle;whiteSpace=wrap;rounded=0;" vertex="1" parent="1">
          <mxGeometry x="727" y="810" width="60" height="20" as="geometry" />
        </mxCell>
        <mxCell id="LU6Gm1x-lDn4f1ZFZXQ8-21" value="No" style="text;strokeColor=none;align=center;fillColor=none;html=1;verticalAlign=middle;whiteSpace=wrap;rounded=0;" vertex="1" parent="1">
          <mxGeometry x="727" y="910" width="60" height="20" as="geometry" />
        </mxCell>
        <mxCell id="LU6Gm1x-lDn4f1ZFZXQ8-28" style="edgeStyle=orthogonalEdgeStyle;rounded=0;orthogonalLoop=1;jettySize=auto;html=1;" edge="1" parent="1" source="LU6Gm1x-lDn4f1ZFZXQ8-24" target="LU6Gm1x-lDn4f1ZFZXQ8-1">
          <mxGeometry relative="1" as="geometry">
            <mxPoint x="1200" y="320" as="targetPoint" />
            <Array as="points">
              <mxPoint x="1200" y="970" />
              <mxPoint x="1200" y="320" />
            </Array>
          </mxGeometry>
        </mxCell>
        <mxCell id="LU6Gm1x-lDn4f1ZFZXQ8-24" value="Turn around" style="shape=parallelogram;perimeter=parallelogramPerimeter;whiteSpace=wrap;html=1;fixedSize=1;fillColor=#e1d5e7;strokeColor=#9673a6;" vertex="1" parent="1">
          <mxGeometry x="727" y="940" width="120" height="60" as="geometry" />
        </mxCell>
        <mxCell id="LU6Gm1x-lDn4f1ZFZXQ8-26" style="edgeStyle=orthogonalEdgeStyle;rounded=0;orthogonalLoop=1;jettySize=auto;html=1;exitX=0.5;exitY=1;exitDx=0;exitDy=0;" edge="1" parent="1" source="LU6Gm1x-lDn4f1ZFZXQ8-21" target="LU6Gm1x-lDn4f1ZFZXQ8-21">
          <mxGeometry relative="1" as="geometry" />
        </mxCell>
      </root>
    </mxGraphModel>
  </diagram>
</mxfile>
